<?xml version="1.0" encoding="UTF-8"?>
<svg id="Calque_1" data-name="Calque 1" xmlns="http://www.w3.org/2000/svg" version="1.1" viewBox="0 0 700 700">
  <defs>
    <style>
      .cls-1, .cls-2 {
        stroke-miterlimit: 10;
      }

      .cls-1, .cls-2, .cls-3 {
        stroke: #000;
      }

      .cls-1, .cls-3 {
        fill: #ffcc32;
      }

      .cls-4 {
        fill: #000;
        stroke-width: 0px;
      }

      .cls-2 {
        fill: #b352ff;
      }
    </style>
  </defs>
  <g id="LOGO">
    <g id="OMBRE">
      <path class="cls-4" d="M442.3,372.83c1.14-.16,2.15,0,3.02.49,1.04.52,1.56,1.33,1.56,2.44,0,1.5-.8,2.86-2.39,4.1-1.24.98-2.59,1.56-4.05,1.76-1.17.16-2.18.03-3.02-.39-1.01-.52-1.51-1.33-1.51-2.44,0-1.5.77-2.88,2.29-4.15,1.24-1.01,2.6-1.61,4.1-1.81ZM447.82,342.48l10.2,1.71c-2.7,4.85-4.68,8.64-5.95,11.37-1.72,3.74-3.25,7.79-4.59,12.15l-6.78-.29,7.12-24.93Z"/>
      <path class="cls-4" d="M280.75,349.19c-4.22,11.19-7.36,22.09-9.42,32.72l-10.5,1.78,1.74-17.2-4.36,15.93-9.99,1.83c1.5-11.75,2.23-22.53,2.2-32.34l8.91-1.69-1.83,20.53,6.09-22.78,4.79-.7-3.26,28.92,6.52-25.59,9.1-1.41Z"/>
      <path class="cls-4" d="M297.05,336.88c4.26,0,7.27,2.37,9.04,7.11.92,2.45,1.39,5.14,1.39,8.08s-.42,5.87-1.27,9.16c-1.49,5.63-4.06,10.81-7.72,15.55-4.46,5.79-9.18,8.68-14.17,8.68-4.3,0-7.35-2.37-9.16-7.11-.88-2.33-1.33-4.94-1.33-7.84s.44-5.95,1.33-9.28c1.49-5.67,4.04-10.87,7.66-15.61,4.46-5.83,9.2-8.74,14.23-8.74ZM294.88,351.83c-2.21,0-4.46,1.81-6.75,5.43-1.85,2.85-3.13,5.65-3.86,8.38-.36,1.45-.54,2.75-.54,3.92,0,1.65.4,2.99,1.21,4.04.92,1.17,2.21,1.75,3.86,1.75,2.25,0,4.28-1.18,6.09-3.56,1.45-1.89,2.49-4.12,3.13-6.69.76-3.01.92-5.99.48-8.92-.48-2.89-1.69-4.34-3.62-4.34Z"/>
      <path class="cls-4" d="M302.7,352.97l5.45-1.1c-.04.65-.06,1.58-.06,2.77,0,2.86.09,5.37.28,7.53.11,1.24.26,2.24.47,2.99l2.14-12.29,5.42-1.01c-2.19,8.43-3.61,15.73-4.29,21.91l-4.98,1.39s-.16-.41-.41-1.1l-1.64-4.67c-.27-.76-.43-1.24-.47-1.45-.44,2.48-.79,4.89-1.04,7.22l-5.04,1.51,4.16-23.71Z"/>
      <path class="cls-4" d="M317.9,348.57c3.59-1.19,6.64-1.78,9.14-1.78,2.81,0,4.95.73,6.42,2.2,2.03,2.09,3.05,4.64,3.05,7.64,0,1.09-.14,2.25-.42,3.47-1.22,5.5-4.09,10.31-8.62,14.41-4.53,4.11-9.58,6.52-15.14,7.24.06-.69.39-2.73.98-6.14l3.75-21.56c.53-3.22.81-5.05.84-5.48ZM324.6,356.3c-1.44,6.12-2.53,11.92-3.28,17.39,1.88-1.78,3.55-3.84,5.02-6.19,1.81-2.88,2.72-5.34,2.72-7.41,0-2.66-1.48-3.92-4.45-3.8Z"/>
      <path class="cls-4" d="M347.12,355.21c-.25.91-.47,1.8-.66,2.68l-.51,2.59,7.5-1.59-.42,6.47c-3.56.63-6.35,1.17-8.37,1.64-.12.63-.23,1.25-.33,1.88l-.35,1.83,8.72-1.27-.61,8.72c-4.5.38-10.2,1.45-17.11,3.23l5.58-33.61,15.61-2.3-.61,8.71c-3.06.28-5.88.62-8.44,1.03Z"/>
      <path class="cls-4" d="M358.93,349.91c4.33-1.3,7.88-1.94,10.63-1.94,3.72,0,5.57,1.3,5.54,3.89-.03,3.72-2.37,7.46-7.03,11.21.39,1.05,1.99,4.34,4.8,9.89-1.43,1.32-3.58,3.27-6.46,5.83l-4.41-11.42h-.04s-.05,0-.05,0c-.66,3.61-1.15,6.95-1.48,10.01l-6.55,1.82c.06-.61.36-2.44.91-5.5l4.14-23.79ZM364.14,356.45c-.25.94-.47,1.88-.66,2.81l-.58,2.81c.97-.5,1.92-1.14,2.85-1.94,1.08-.94,1.79-1.83,2.15-2.69.14-.25.21-.48.21-.7,0-.61-.4-.91-1.2-.91-.63,0-1.56.21-2.77.62Z"/>
      <path class="cls-4" d="M392.73,342.48l-.31,9.73c-2.44.14-4.76.31-6.96.52-2.3,9.66-3.86,18.54-4.66,26.64l-8.84,2.3,4.81-27.84c-.94.14-1.88.3-2.83.47l-2.77.52-.63-9.79,22.19-2.56Z"/>
      <path class="cls-4" d="M397.28,357.65c-.22.79-.4,1.56-.57,2.32l-.45,2.24,6.49-1.38-.36,5.6c-3.08.54-5.49,1.01-7.24,1.42-.11.54-.2,1.08-.28,1.62l-.3,1.58,7.54-1.1-.53,7.54c-3.89.32-8.82,1.26-14.8,2.8l4.83-29.07,13.5-1.99-.53,7.53c-2.65.24-5.08.54-7.3.89Z"/>
      <path class="cls-4" d="M420.48,347.37c3.25,0,5.64,1.77,7.17,5.3l-5.3,5.81c-.72-.75-1.55-1.12-2.48-1.12-1.66,0-3.38,1.42-5.16,4.27-1.47,2.34-2.42,4.53-2.86,6.56-.22.97-.33,1.84-.33,2.62,0,2.09.77,3.53,2.3,4.31.5.25,1.03.38,1.59.38,1.62,0,3.33-1.2,5.11-3.61l1.5,5.58c-3.09,3.44-6.23,5.16-9.42,5.16s-5.62-1.72-7.12-5.16c-.91-2-1.36-4.23-1.36-6.7,0-1.81.23-3.73.7-5.77.94-4.16,2.72-7.95,5.34-11.39,3.16-4.16,6.59-6.23,10.31-6.23Z"/>
      <path class="cls-4" d="M428.09,355.18l6.87-1.19c-1.24,4.73-2.24,9.05-3,12.94l3.07-.65,1.89-11.1,6.87-1.19c-2.62,10.12-4.28,18.72-4.97,25.79l-6.38,1.63,1.71-10.09c-.69.15-1.74.37-3.15.67-.47,3.04-.8,5.64-1,7.79l-6.38,1.63,4.49-26.24Z"/>
    </g>
    <path class="cls-2" d="M277.66,344.7c-4.22,11.19-7.36,22.09-9.42,32.72l-10.5,1.78,1.74-17.2-4.36,15.93-9.99,1.83c1.5-11.75,2.23-22.53,2.2-32.34l8.91-1.69-1.83,20.53,6.09-22.78,4.79-.7-3.26,28.92,6.52-25.59,9.1-1.41Z"/>
    <path class="cls-2" d="M291.36,337.6c3.82,0,6.52,2.13,8.11,6.38.83,2.2,1.24,4.61,1.24,7.24s-.38,5.26-1.14,8.22c-1.33,5.05-3.64,9.7-6.92,13.95-4,5.19-8.24,7.79-12.7,7.79-3.86,0-6.6-2.13-8.22-6.38-.79-2.09-1.19-4.43-1.19-7.03s.4-5.33,1.19-8.33c1.33-5.08,3.62-9.75,6.87-14,4-5.22,8.25-7.84,12.76-7.84ZM289.42,351.01c-1.98,0-4,1.62-6.06,4.87-1.66,2.56-2.81,5.06-3.46,7.51-.32,1.3-.49,2.47-.49,3.51,0,1.48.36,2.69,1.08,3.62.83,1.05,1.98,1.57,3.46,1.57,2.02,0,3.84-1.06,5.46-3.19,1.3-1.69,2.23-3.69,2.81-6,.68-2.7.83-5.37.43-8-.43-2.6-1.51-3.89-3.24-3.89Z"/>
    <path class="cls-2" d="M299.99,348.73l5.65-1.14c-.04.67-.07,1.63-.07,2.87,0,2.96.1,5.56.29,7.8.11,1.29.27,2.32.49,3.1l2.22-12.74,5.62-1.04c-2.26,8.73-3.74,16.3-4.44,22.7l-5.16,1.44s-.16-.42-.42-1.14l-1.7-4.83c-.28-.78-.45-1.28-.49-1.5-.46,2.57-.82,5.06-1.08,7.48l-5.22,1.57,4.31-24.56Z"/>
    <path class="cls-2" d="M316.87,345.85c3.59-1.19,6.64-1.78,9.14-1.78,2.81,0,4.95.73,6.42,2.2,2.03,2.09,3.05,4.64,3.05,7.64,0,1.09-.14,2.25-.42,3.47-1.22,5.5-4.09,10.31-8.62,14.41-4.53,4.11-9.58,6.52-15.14,7.24.06-.69.39-2.73.98-6.14l3.75-21.56c.53-3.22.81-5.05.84-5.48ZM323.57,353.58c-1.44,6.12-2.53,11.92-3.28,17.39,1.88-1.78,3.55-3.84,5.02-6.19,1.81-2.88,2.72-5.34,2.72-7.41,0-2.66-1.48-3.92-4.45-3.8Z"/>
    <path class="cls-2" d="M345.6,351.29c-.25.91-.47,1.8-.66,2.68l-.51,2.59,7.5-1.59-.42,6.47c-3.56.63-6.35,1.17-8.37,1.64-.12.63-.23,1.25-.33,1.88l-.35,1.83,8.72-1.27-.61,8.72c-4.5.38-10.2,1.45-17.11,3.23l5.58-33.61,15.61-2.3-.61,8.71c-3.06.28-5.88.62-8.44,1.03Z"/>
    <path class="cls-2" d="M357.04,347.7c4.91-1.29,8.92-1.93,12.05-1.93,4.22,0,6.31,1.29,6.28,3.86-.03,3.69-2.69,7.4-7.97,11.12.44,1.04,2.25,4.31,5.44,9.81-1.62,1.31-4.06,3.24-7.32,5.79l-4.99-11.33h-.05s-.06,0-.06,0c-.74,3.58-1.3,6.89-1.67,9.93l-7.42,1.81c.06-.6.41-2.42,1.03-5.46l4.69-23.6ZM362.95,354.19c-.28.93-.53,1.86-.75,2.79l-.66,2.79c1.09-.49,2.17-1.13,3.23-1.93,1.22-.93,2.03-1.82,2.44-2.67.16-.25.23-.48.23-.7,0-.6-.45-.9-1.36-.9-.72,0-1.77.21-3.14.62Z"/>
    <path class="cls-1" d="M392.42,339.11l-.31,9.46c-2.37.14-4.63.31-6.76.51-2.24,9.39-3.75,18.02-4.53,25.88l-8.59,2.24,4.68-27.05c-.92.14-1.83.29-2.75.46l-2.7.51-.61-9.51,21.56-2.49Z"/>
    <path class="cls-1" d="M395.24,353.68c-.22.84-.4,1.66-.57,2.47l-.45,2.39,6.49-1.47-.36,5.97c-3.08.58-5.49,1.08-7.24,1.51-.11.58-.2,1.15-.28,1.73l-.3,1.69,7.54-1.17-.53,8.05c-3.89.35-8.82,1.34-14.8,2.98l4.83-31.01,13.5-2.12-.53,8.04c-2.65.26-5.08.57-7.3.95Z"/>
    <path class="cls-1" d="M418.87,342.82c3.25,0,5.64,1.77,7.17,5.3l-5.3,5.81c-.72-.75-1.55-1.12-2.48-1.12-1.66,0-3.38,1.42-5.16,4.27-1.47,2.34-2.42,4.53-2.86,6.56-.22.97-.33,1.84-.33,2.62,0,2.09.77,3.53,2.3,4.31.5.25,1.03.38,1.59.38,1.62,0,3.33-1.2,5.11-3.61l1.5,5.58c-3.09,3.44-6.23,5.16-9.42,5.16s-5.62-1.72-7.12-5.16c-.91-2-1.36-4.23-1.36-6.7,0-1.81.23-3.73.7-5.77.94-4.16,2.72-7.95,5.34-11.39,3.16-4.16,6.59-6.23,10.31-6.23Z"/>
    <path class="cls-1" d="M426.26,350.85l6.9-1.19c-1.24,4.76-2.25,9.09-3.01,12.99l3.09-.65,1.9-11.15,6.9-1.19c-2.63,10.16-4.3,18.8-5,25.91l-6.41,1.64,1.71-10.14c-.7.15-1.75.37-3.17.67-.47,3.06-.81,5.67-1.01,7.83l-6.41,1.64,4.51-26.35Z"/>
    <path class="cls-3" d="M441.9,368.5c1.09-.16,2.06,0,2.91.47,1,.5,1.5,1.28,1.5,2.35,0,1.44-.77,2.75-2.3,3.94-1.19.94-2.49,1.5-3.89,1.69-1.13.16-2.1.03-2.91-.38-.97-.5-1.46-1.28-1.46-2.35,0-1.44.74-2.77,2.21-3.99,1.19-.97,2.5-1.55,3.94-1.74ZM447.2,339.31l9.81,1.64c-2.6,4.66-4.5,8.31-5.72,10.93-1.66,3.6-3.13,7.49-4.41,11.68l-6.52-.28,6.85-23.98Z"/>
  </g>
</svg>